# xmcd
#
# Track frame offsets:
#	150
#	19127
#	30798
#	47560
#	59178
#	76115
#	93532
#	107869
#	130711
#	148114
#	167939
#	183858
#	198381
#	215352
#	233716
#	254995
#	274257
#	298487
#	315196
#
# Disc length: 4474 seconds
#
# Revision: 2
# Processed by: cddbd v1.4b41PL1 Copyright (c) Steve Scherf et al.
# Submitted via: audiograbber 1.80
#
DISCID=1a117813
DTITLE=Joe Cocker - Golden Collection 2000
DYEAR=1900
DGENRE=
TTITLE0=Look What You've Done
TTITLE1=Marie
TTITLE2=Many Rivers To Cross
TTITLE3=So Good, So Right
TTITLE4=There Goes My Baby
TTITLE5=Crazy In Love
TTITLE6=A Girl Like You
TTITLE7=Unchain My Heart
TTITLE8=Isolation
TTITLE9=All Our Tomorrows
TTITLE10=Bye Bye, Blackbird
TTITLE11=Dignity
TTITLE12=You Can Leave Your Hat On
TTITLE13=That's All I Need To Know
TTITLE14=N'obliez Jarais
TTITLE15=Wavward Soul
TTITLE16=Need Your Love So Bad
TTITLE17=First We Take Manhattan
TTITLE18=My Father's Son
EXTD=
EXTT0=
EXTT1=
EXTT2=
EXTT3=
EXTT4=
EXTT5=
EXTT6=
EXTT7=
EXTT8=
EXTT9=
EXTT10=
EXTT11=
EXTT12=
EXTT13=
EXTT14=
EXTT15=
EXTT16=
EXTT17=
EXTT18=
PLAYORDER=
